# xmcd
#
# Track frame offsets:
#	150
#	13027
#	22089
#	32440
#	42876
#	53199
#	63091
#	73452
#	88245
#	98364
#	111602
#	123079
#	131583
#	143990
#	155235
#	165571
#	178101
#	192961
#	204159
#	216051
#
# Disc length: 3031 seconds
#
# Revision: 0
# Processed by: cddbd v1.5.2PL0 Copyright (c) Steve Scherf et al.
# Submitted via: FairStars CD Ripper 1.80
#
DISCID=1f0bd514
DTITLE=Various Artist - Country memories
DYEAR=2001
DGENRE=Country
TTITLE0=Bill Anderson - Still
TTITLE1=Burl Ives - A Little Bitty Tear
TTITLE2=Dave Dudley - Six Days On The Road
TTITLE3=Ferlin Husky - Wings Of A Dove
TTITLE4=Skeeter davis - My Last Date (With You)
TTITLE5=Mickey Gilley - Fraulein
TTITLE6=Faron Young - Hello Walls
TTITLE7=Don Gibson - I Can't Stop Loving You
TTITLE8=Jim Reeves - He'll Have To Go
TTITLE9=Bobby Bare - Detroit City
TTITLE10=Sandy Posey - Single Girl
TTITLE11=Burl Ives - Funny Way Of Laughing
TTITLE12=Jack Scott - What In The Worlds Come Over You?
TTITLE13=Jim Reeves - Am I Losing You
TTITLE14=Don Gibson - Lonesome Number One
TTITLE15=Bobby Bare - 500 Miles Away From HOme
TTITLE16=Loretta Lynn - Coal Miners Daughter
TTITLE17=Sgt. Barry Sadler - Ballad Of The Green Berets
TTITLE18=Tammy Wynette - Stand By Your Man
TTITLE19=The Kendalls - Heaven's Just A Sin Away
EXTD=
EXTT0=
EXTT1=
EXTT2=
EXTT3=
EXTT4=
EXTT5=
EXTT6=
EXTT7=
EXTT8=
EXTT9=
EXTT10=
EXTT11=
EXTT12=
EXTT13=
EXTT14=
EXTT15=
EXTT16=
EXTT17=
EXTT18=
EXTT19=
PLAYORDER=
